<svg width="25" height="24" viewBox="0 0 25 24" fill="none" xmlns="http://www.w3.org/2000/svg">
<g clip-path="url(#clip0_1787_4653)">
<path d="M5.756 0H19.244C22.1469 0 24.5 2.35312 24.5 5.256V18.744C24.5 21.6469 22.1469 24 19.244 24H5.756C2.85312 24 0.5 21.6469 0.5 18.744V5.256C0.5 2.35312 2.85312 0 5.756 0Z" fill="url(#paint0_linear_1787_4653)"/>
<path d="M8.19133 17.4193L8.19358 17.42L7.37298 18.8413C7.07345 19.3601 6.41008 19.5379 5.89127 19.2383C5.37255 18.9388 5.1947 18.2754 5.49423 17.7566L6.09873 16.7096L6.15677 16.6091C6.26036 16.4602 6.51602 16.2032 7.02742 16.2515C7.02742 16.2515 8.23089 16.3821 8.31798 17.0076C8.31798 17.0076 8.3298 17.2134 8.19133 17.4193ZM19.8297 13.7893H17.2709C17.0966 13.7776 17.0206 13.7153 16.9906 13.6791L16.9887 13.6759L14.2496 8.93154L14.2461 8.93389L14.0818 8.69839C13.8126 8.28664 13.3851 9.33964 13.3851 9.33964C12.8746 10.513 13.4575 11.847 13.6607 12.2502L17.4653 18.8399C17.7647 19.3586 18.4281 19.5365 18.947 19.2368C19.4657 18.9373 19.6435 18.2739 19.3439 17.7551L18.3926 16.1074C18.3742 16.0674 18.3421 15.959 18.5372 15.9586H19.8297C20.4288 15.9586 20.9144 15.4729 20.9144 14.8739C20.9144 14.2748 20.4288 13.7893 19.8297 13.7893ZM14.8597 15.2637C14.8597 15.2637 14.9963 15.9585 14.4678 15.9585H5.00852C4.40945 15.9585 3.92383 15.4729 3.92383 14.8738C3.92383 14.2747 4.40945 13.7891 5.00852 13.7891H7.44039C7.83302 13.7664 7.92602 13.5397 7.92602 13.5397L7.92827 13.5409L11.1026 8.04261L11.1017 8.04242C11.1595 7.9362 11.1114 7.83579 11.103 7.81995L10.0546 6.00411C9.75508 5.48539 9.93283 4.82192 10.4516 4.52248C10.9705 4.22295 11.6338 4.40061 11.9334 4.91942L12.4195 5.76157L12.9049 4.92092C13.2044 4.4022 13.8678 4.22436 14.3866 4.52398C14.9054 4.82351 15.0832 5.48679 14.7836 6.00561L10.3663 13.6565C10.347 13.7031 10.3411 13.7763 10.4848 13.7891H13.1252L13.1258 13.8149C13.1258 13.8149 14.6518 13.8386 14.8597 15.2637Z" fill="white"/>
</g>
<defs>
<linearGradient id="paint0_linear_1787_4653" x1="1200.5" y1="0" x2="1200.5" y2="2400" gradientUnits="userSpaceOnUse">
<stop stop-color="#17C9FB"/>
<stop offset="1" stop-color="#1A74E8"/>
</linearGradient>
<clipPath id="clip0_1787_4653">
<rect width="24" height="24" fill="white" transform="translate(0.5)"/>
</clipPath>
</defs>
</svg>
