<svg width="28" height="28" viewBox="0 0 28 28" fill="none" xmlns="http://www.w3.org/2000/svg">
<path d="M19.8334 12.8332H10.9784L14.8284 8.99489C15.0481 8.7752 15.1715 8.47724 15.1715 8.16656C15.1715 7.85587 15.0481 7.55791 14.8284 7.33822C14.6087 7.11854 14.3107 6.99512 14 6.99512C13.6894 6.99512 13.3914 7.11854 13.1717 7.33822L7.33838 13.1716C7.23216 13.2825 7.1489 13.4133 7.09338 13.5566C6.97669 13.8406 6.97669 14.1592 7.09338 14.4432C7.1489 14.5864 7.23216 14.7173 7.33838 14.8282L13.1717 20.6616C13.2802 20.7709 13.4092 20.8577 13.5514 20.9169C13.6935 20.9762 13.846 21.0067 14 21.0067C14.1541 21.0067 14.3065 20.9762 14.4487 20.9169C14.5909 20.8577 14.7199 20.7709 14.8284 20.6616C14.9377 20.5531 15.0245 20.4241 15.0837 20.2819C15.143 20.1397 15.1735 19.9872 15.1735 19.8332C15.1735 19.6792 15.143 19.5267 15.0837 19.3846C15.0245 19.2424 14.9377 19.1133 14.8284 19.0049L10.9784 15.1666H19.8334C20.1428 15.1666 20.4395 15.0436 20.6583 14.8248C20.8771 14.6061 21 14.3093 21 13.9999C21 13.6905 20.8771 13.3937 20.6583 13.1749C20.4395 12.9561 20.1428 12.8332 19.8334 12.8332Z" fill="#212121"/>
</svg>
