<svg width="32" height="32" viewBox="0 0 32 32" fill="none" xmlns="http://www.w3.org/2000/svg">
<rect x="0.5" y="0.5" width="31" height="31" rx="9.5" fill="white"/>
<rect x="0.5" y="0.5" width="31" height="31" rx="9.5" stroke="#090F24"/>
<path d="M14.6667 22.0007H17.3333C17.3333 22.734 16.7333 23.334 16 23.334C15.2667 23.334 14.6667 22.734 14.6667 22.0007ZM22 20.6673V21.334H10V20.6673L11.3333 19.334V15.334C11.3333 13.2673 12.6667 11.4673 14.6667 10.8673V10.6673C14.6667 9.93398 15.2667 9.33398 16 9.33398C16.7333 9.33398 17.3333 9.93398 17.3333 10.6673V10.8673C19.3333 11.4673 20.6667 13.2673 20.6667 15.334V19.334L22 20.6673ZM19.3333 15.334C19.3333 13.4673 17.8667 12.0007 16 12.0007C14.1333 12.0007 12.6667 13.4673 12.6667 15.334V20.0007H19.3333V15.334Z" fill="#090F24"/>
</svg>
