<svg width="49" height="48" viewBox="0 0 49 48" fill="none" xmlns="http://www.w3.org/2000/svg">
<path d="M42.5 38V40H6.5V38L10.5 34V22C10.5 15.8 14.56 10.34 20.5 8.58V8C20.5 6.93913 20.9214 5.92172 21.6716 5.17157C22.4217 4.42143 23.4391 4 24.5 4C25.5609 4 26.5783 4.42143 27.3284 5.17157C28.0786 5.92172 28.5 6.93913 28.5 8V8.58C34.44 10.34 38.5 15.8 38.5 22V34L42.5 38ZM28.5 42C28.5 43.0609 28.0786 44.0783 27.3284 44.8284C26.5783 45.5786 25.5609 46 24.5 46C23.4391 46 22.4217 45.5786 21.6716 44.8284C20.9214 44.0783 20.5 43.0609 20.5 42" fill="#5E626F"/>
</svg>
