<svg width="18" height="18" viewBox="0 0 18 18" fill="none" xmlns="http://www.w3.org/2000/svg">
<path d="M4.19998 0.599976C3.2452 0.599976 2.32952 0.97926 1.65439 1.65439C0.97926 2.32952 0.599976 3.2452 0.599976 4.19998V13.8C0.599976 14.7548 0.97926 15.6704 1.65439 16.3456C2.32952 17.0207 3.2452 17.4 4.19998 17.4H13.8C14.7548 17.4 15.6704 17.0207 16.3456 16.3456C17.0207 15.6704 17.4 14.7548 17.4 13.8V4.19998C17.4 3.2452 17.0207 2.32952 16.3456 1.65439C15.6704 0.97926 14.7548 0.599976 13.8 0.599976H4.19998ZM13.6248 6.42478L7.62478 12.4248C7.56904 12.4807 7.50283 12.525 7.42994 12.5552C7.35704 12.5855 7.2789 12.601 7.19998 12.601C7.12106 12.601 7.04291 12.5855 6.97002 12.5552C6.89712 12.525 6.83091 12.4807 6.77518 12.4248L4.37518 10.0248C4.26251 9.91211 4.19922 9.75931 4.19922 9.59998C4.19922 9.44065 4.26251 9.28784 4.37518 9.17518C4.48784 9.06251 4.64065 8.99922 4.79998 8.99922C4.95931 8.99922 5.11211 9.06251 5.22478 9.17518L7.19998 11.1516L12.7752 5.57518C12.831 5.51939 12.8972 5.47514 12.9701 5.44495C13.043 5.41476 13.1211 5.39922 13.2 5.39922C13.2789 5.39922 13.357 5.41476 13.4299 5.44495C13.5028 5.47514 13.569 5.51939 13.6248 5.57518C13.6806 5.63096 13.7248 5.69719 13.755 5.77008C13.7852 5.84296 13.8007 5.92108 13.8007 5.99998C13.8007 6.07887 13.7852 6.15699 13.755 6.22988C13.7248 6.30276 13.6806 6.36899 13.6248 6.42478Z" fill="#199744"/>
</svg>
