<svg width="16" height="16" viewBox="0 0 16 16" fill="none" xmlns="http://www.w3.org/2000/svg">
<path fill-rule="evenodd" clip-rule="evenodd" d="M13.4645 7.98888H14.3128C14.3159 4.68445 11.6615 2.00313 8.3841 2C5.26492 1.99701 2.67584 4.42919 2.45856 7.5664L1.59971 6.70047L1 7.3047L2.82372 9.14345L4.64745 7.3047L4.04604 6.70047L3.31613 7.4364C3.62354 4.61942 6.13771 2.58704 8.93169 2.89698C11.5082 3.18282 13.4601 5.37542 13.4645 7.98888Z" fill="currentColor" stroke="currentColor" stroke-width="0.4"/>
<path fill-rule="evenodd" clip-rule="evenodd" d="M6.89355 13.7877C7.18856 13.8637 7.48886 13.9172 7.79184 13.9476L7.87667 13.0962C7.61684 13.0703 7.35935 13.0244 7.10646 12.959L6.89355 13.7877Z" fill="currentColor" stroke="currentColor" stroke-width="0.4"/>
<path fill-rule="evenodd" clip-rule="evenodd" d="M3.68332 9.96289L2.90039 10.2922C3.01779 10.5753 3.15645 10.8491 3.31518 11.111L4.03873 10.665C3.9028 10.4404 3.784 10.2057 3.68332 9.96289Z" fill="currentColor" stroke="currentColor" stroke-width="0.4"/>
<path fill-rule="evenodd" clip-rule="evenodd" d="M5.22168 13.0607C5.47902 13.2239 5.74844 13.3668 6.02751 13.4884L6.36384 12.7033C6.12424 12.5989 5.89296 12.4761 5.6721 12.3359L5.22168 13.0607Z" fill="currentColor" stroke="currentColor" stroke-width="0.4"/>
<path fill-rule="evenodd" clip-rule="evenodd" d="M4.49682 11.3047L3.84961 11.8576C4.04622 12.0918 4.26032 12.3105 4.49003 12.5119L5.04648 11.8661C4.84924 11.6935 4.66546 11.5058 4.49682 11.3047Z" fill="currentColor" stroke="currentColor" stroke-width="0.4"/>
<path fill-rule="evenodd" clip-rule="evenodd" d="M11.5361 12.008L12.065 12.6746C12.3032 12.4834 12.5264 12.274 12.7326 12.0482L12.1074 11.4688C11.9308 11.6628 11.7398 11.8431 11.5361 12.008Z" fill="currentColor" stroke="currentColor" stroke-width="0.4"/>
<path fill-rule="evenodd" clip-rule="evenodd" d="M8.65723 13.1124L8.70346 13.9676C9.00779 13.9508 9.31037 13.9103 9.60853 13.8466L9.4321 13.0098C9.1768 13.0639 8.91774 13.0983 8.65723 13.1124Z" fill="currentColor" stroke="currentColor" stroke-width="0.4"/>
<path fill-rule="evenodd" clip-rule="evenodd" d="M12.5938 10.85L13.2978 11.3272C13.4676 11.0723 13.6177 10.8047 13.7469 10.5267L12.9784 10.1641C12.8679 10.4023 12.7393 10.6317 12.5938 10.85Z" fill="currentColor" stroke="currentColor" stroke-width="0.4"/>
<path fill-rule="evenodd" clip-rule="evenodd" d="M10.1826 12.7862L10.485 13.5854C10.7696 13.4757 11.0454 13.3441 11.3099 13.1916L10.8888 12.4492C10.6622 12.5795 10.4262 12.6922 10.1826 12.7862Z" fill="currentColor" stroke="currentColor" stroke-width="0.4"/>
</svg>
