<svg width="24" height="24" viewBox="0 0 24 24" fill="none" xmlns="http://www.w3.org/2000/svg">
<path d="M11 17H13V11H11V17ZM12 9C12.2833 9 12.521 8.904 12.713 8.712C12.905 8.52 13.0007 8.28267 13 8C13 7.71667 12.904 7.47933 12.712 7.288C12.52 7.09667 12.2827 7.00067 12 7C11.7167 7 11.4793 7.096 11.288 7.288C11.0967 7.48 11.0007 7.71733 11 8C11 8.28333 11.096 8.521 11.288 8.713C11.48 8.905 11.7173 9.00067 12 9ZM12 22C9.68333 21.4167 7.77067 20.0873 6.262 18.012C4.75333 15.9367 3.99933 13.6327 4 11.1V5L12 2L20 5V11.1C20 13.6333 19.246 15.9377 17.738 18.013C16.23 20.0883 14.3173 21.4173 12 22Z" fill="#090F24"/>
</svg>
