<svg width="25" height="24" viewBox="0 0 25 24" fill="none" xmlns="http://www.w3.org/2000/svg">
<path d="M20.1407 14.49L19.1407 12.83C18.9307 12.46 18.7407 11.76 18.7407 11.35V8.82C18.7407 6.47 17.3607 4.44 15.3707 3.49C14.8507 2.57 13.8907 2 12.7907 2C11.7007 2 10.7207 2.59 10.2007 3.52C8.25072 4.49 6.90072 6.5 6.90072 8.82V11.35C6.90072 11.76 6.71072 12.46 6.50072 12.82L5.49072 14.49C5.09072 15.16 5.00072 15.9 5.25072 16.58C5.49072 17.25 6.06072 17.77 6.80072 18.02C8.74072 18.68 10.7807 19 12.8207 19C14.8607 19 16.9007 18.68 18.8407 18.03C19.5407 17.8 20.0807 17.27 20.3407 16.58C20.6007 15.89 20.5307 15.13 20.1407 14.49Z" fill="currentColor"/>
<path d="M15.6305 20.01C15.2105 21.17 14.1005 22 12.8005 22C12.0105 22 11.2305 21.68 10.6805 21.11C10.3605 20.81 10.1205 20.41 9.98047 20C10.1105 20.02 10.2405 20.03 10.3805 20.05C10.6105 20.08 10.8505 20.11 11.0905 20.13C11.6605 20.18 12.2405 20.21 12.8205 20.21C13.3905 20.21 13.9605 20.18 14.5205 20.13C14.7305 20.11 14.9405 20.1 15.1405 20.07C15.3005 20.05 15.4605 20.03 15.6305 20.01Z" fill="currentColor"/>
</svg>
