<svg width="25" height="24" viewBox="0 0 25 24" fill="none" xmlns="http://www.w3.org/2000/svg">
<path d="M20.6106 7.81945L12.9106 12.2795C12.6006 12.4595 12.2106 12.4595 11.8906 12.2795L4.19061 7.81945C3.64061 7.49945 3.50061 6.74945 3.92061 6.27945C4.21061 5.94945 4.54061 5.67945 4.89061 5.48945L10.3106 2.48945C11.4706 1.83945 13.3506 1.83945 14.5106 2.48945L19.9306 5.48945C20.2806 5.67945 20.6106 5.95945 20.9006 6.27945C21.3006 6.74945 21.1606 7.49945 20.6106 7.81945Z" fill="currentColor"/>
<path d="M11.8309 14.1409V20.9609C11.8309 21.7209 11.0609 22.2209 10.3809 21.8909C8.32086 20.8809 4.85086 18.9909 4.85086 18.9909C3.63086 18.3009 2.63086 16.5609 2.63086 15.1309V9.97086C2.63086 9.18086 3.46086 8.68086 4.14086 9.07086L11.3309 13.2409C11.6309 13.4309 11.8309 13.7709 11.8309 14.1409Z" fill="currentColor"/>
<path d="M12.9707 14.1409V20.9609C12.9707 21.7209 13.7407 22.2209 14.4207 21.8909C16.4807 20.8809 19.9507 18.9909 19.9507 18.9909C21.1707 18.3009 22.1707 16.5609 22.1707 15.1309V9.97086C22.1707 9.18086 21.3407 8.68086 20.6607 9.07086L13.4707 13.2409C13.1707 13.4309 12.9707 13.7709 12.9707 14.1409Z" fill="currentColor"/>
</svg>
