<svg width="25" height="24" viewBox="0 0 25 24" fill="none" xmlns="http://www.w3.org/2000/svg">
<path d="M16.3902 2H8.0102C4.3702 2 2.2002 4.17 2.2002 7.81V16.19C2.2002 19.83 4.3702 22 8.0102 22H16.3902C20.0302 22 22.2002 19.83 22.2002 16.19V7.81C22.2002 4.17 20.0302 2 16.3902 2ZM10.1702 14.9L7.9202 17.15C7.7702 17.3 7.5802 17.37 7.3902 17.37C7.2002 17.37 7.0002 17.3 6.8602 17.15L6.1102 16.4C5.8102 16.11 5.8102 15.63 6.1102 15.34C6.4002 15.05 6.87019 15.05 7.1702 15.34L7.3902 15.56L9.1102 13.84C9.4002 13.55 9.8702 13.55 10.1702 13.84C10.4602 14.13 10.4602 14.61 10.1702 14.9ZM10.1702 7.9L7.9202 10.15C7.7702 10.3 7.5802 10.37 7.3902 10.37C7.2002 10.37 7.0002 10.3 6.8602 10.15L6.1102 9.4C5.8102 9.11 5.8102 8.63 6.1102 8.34C6.4002 8.05 6.87019 8.05 7.1702 8.34L7.3902 8.56L9.1102 6.84C9.4002 6.55 9.8702 6.55 10.1702 6.84C10.4602 7.13 10.4602 7.61 10.1702 7.9ZM17.7602 16.62H12.5102C12.1002 16.62 11.7602 16.28 11.7602 15.87C11.7602 15.46 12.1002 15.12 12.5102 15.12H17.7602C18.1802 15.12 18.5102 15.46 18.5102 15.87C18.5102 16.28 18.1802 16.62 17.7602 16.62ZM17.7602 9.62H12.5102C12.1002 9.62 11.7602 9.28 11.7602 8.87C11.7602 8.46 12.1002 8.12 12.5102 8.12H17.7602C18.1802 8.12 18.5102 8.46 18.5102 8.87C18.5102 9.28 18.1802 9.62 17.7602 9.62Z" fill="currentColor"/>
</svg>
