<svg width="25" height="24" viewBox="0 0 25 24" fill="none" xmlns="http://www.w3.org/2000/svg">
<path d="M22.6006 7.55039C22.6006 8.21039 22.0606 8.75039 21.4006 8.75039H3.80059C3.14059 8.75039 2.60059 8.21039 2.60059 7.55039V7.54039C2.60059 5.25039 4.45059 3.40039 6.74059 3.40039H18.4506C20.7406 3.40039 22.6006 5.26039 22.6006 7.55039Z" fill="currentColor"/>
<path d="M2.60059 11.45V16.46C2.60059 18.75 4.45059 20.6 6.74059 20.6H18.4506C20.7406 20.6 22.6006 18.74 22.6006 16.45V11.45C22.6006 10.79 22.0606 10.25 21.4006 10.25H3.80059C3.14059 10.25 2.60059 10.79 2.60059 11.45ZM8.60059 17.25H6.60059C6.19059 17.25 5.85059 16.91 5.85059 16.5C5.85059 16.09 6.19059 15.75 6.60059 15.75H8.60059C9.01059 15.75 9.35059 16.09 9.35059 16.5C9.35059 16.91 9.01059 17.25 8.60059 17.25ZM15.1006 17.25H11.1006C10.6906 17.25 10.3506 16.91 10.3506 16.5C10.3506 16.09 10.6906 15.75 11.1006 15.75H15.1006C15.5106 15.75 15.8506 16.09 15.8506 16.5C15.8506 16.91 15.5106 17.25 15.1006 17.25Z" fill="currentColor"/>
</svg>
